<svg width="105" height="104" viewBox="0 0 105 104" fill="none" xmlns="http://www.w3.org/2000/svg">
<rect x="48.2549" y="47" width="9" height="64" transform="rotate(45 48.2549 47)" stroke="black" stroke-width="3"/>
<rect x="61.2549" y="34" width="9" height="12" transform="rotate(45 61.2549 34)" stroke="black" stroke-width="3"/>
<path d="M87.2549 52C87.2549 44.3009 84.6959 37.1995 80.382 31.5M19.2549 52C19.2549 58.8225 21.2644 65.1757 24.7238 70.5" stroke="black" stroke-width="3"/>
<path d="M83.2549 78L92.2549 87" stroke="black" stroke-width="3"/>
<path d="M92.2549 78L83.2549 87" stroke="black" stroke-width="3"/>
<path d="M31.2549 26L40.2549 35" stroke="black" stroke-width="3"/>
<path d="M40.2549 26L31.2549 35" stroke="black" stroke-width="3"/>
<path d="M70.7549 81L66.2549 85.5L61.7549 81L57.2549 85.5L52.7549 81L48.2549 85.5" stroke="black" stroke-width="3"/>
<rect x="85.7549" y="54" width="3" height="3" fill="black"/>
<rect x="17.7549" y="47" width="3" height="3" fill="black"/>
<circle cx="44.2549" cy="9" r="3" fill="black"/>
<path d="M53.2549 2C80.8691 2 103.255 24.3858 103.255 52C103.255 59.3051 101.688 66.2443 98.8727 72.5M77.7549 95.5963C70.5147 99.6739 62.1564 102 53.2549 102C46.9094 102 40.84 100.818 35.2549 98.662C29.4976 96.4397 24.255 93.1825 19.7549 89.1186M13.2512 82C6.97433 73.6434 3.25488 63.2561 3.25488 52C3.25488 31.1119 16.0635 13.2155 34.2549 5.73647" stroke="black" stroke-width="3"/>
</svg>
